<svg xmlns="http://www.w3.org/2000/svg" width="421" height="46" viewBox="0 0 421 46">
  <g fill="#FFF" fill-rule="evenodd">
    <polygon points="44.559 .335 35.447 20.694 26.439 .335 0 .335 0 44.099 20.968 44.099 20.968 21.972 31.095 44.099 39.9 44.099 50.027 21.972 50.027 44.099 70.995 44.099 70.995 .335"/>
    <polygon points="79.166 44.098 100.133 44.098 100.133 .334 79.166 .334"/>
    <polygon points="143.848 .335 137.204 12.059 130.561 .335 107.585 .335 121.264 21.592 105.297 44.099 130.003 44.099 137.204 31.738 144.404 44.099 169.108 44.099 153.197 21.592 166.82 .335"/>
    <polygon points="193.518 44.098 214.485 44.098 214.485 .334 193.518 .334"/>
    <polygon points="220.866 .335 220.866 14.672 236.314 14.672 236.314 44.099 257.281 44.099 257.281 14.672 273.169 14.672 273.169 .335"/>
    <path d="M38.662652.111557749L38.662652 21.9937306C38.662652 26.4346386 34.7029538 29.417872 31.0047609 29.417872L28.8057089 29.417872C25.107516 29.417872 21.1474835 26.4346386 21.1474835 21.9937306L21.1474835.111557749.180244684.111557749.180244684 21.9937306C.180244684 42.2851354 20.1987744 44.4758273 28.8057089 44.4758273L31.0047609 44.4758273C39.6116954 44.4758273 59.6302252 42.2851354 59.6302252 21.9937306L59.6302252.111557749 38.662652.111557749zM87.5208328 13.4809313L105.077133 13.4809313C106.392351 13.4809313 107.536353 14.6677372 107.536353 16.1672125 107.536353 17.6666877 106.392351 18.9156931 105.077133 18.9156931L87.5208328 18.9156931 87.5208328 13.4809313zM106.982577.111724952L66.7024046.111724952 66.7024046 43.8757362 87.6696434 43.8757362 87.6696434 32.2848995 106.982577 32.2848995C117.453489 32.2848995 125.052859 26.2649277 125.052859 17.9699937L125.052859 14.3667721C125.052859 6.10661633 117.453489.111724952 106.982577.111724952L106.982577.111724952z" transform="translate(294.277 .223)"/>
  </g>
</svg>
