<svg xmlns="http://www.w3.org/2000/svg" width="146" height="93" viewBox="0 0 146 93">
    <g fill="none" fill-rule="evenodd">
        <g fill="#00D7FF">
            <path d="M43 79.111V49.472c0-6.16 3.962-10.471 10.792-10.471 6.557 0 10.04 4.174 10.04 9.035v5.611h-3.21v-4.79c0-3.971-2.185-6.776-6.9-6.776-5.258 0-7.103 3.49-7.103 7.597v28.75c0 5.065 2.802 7.528 7.24 7.528 4.578 0 6.763-3.012 6.763-6.64v-4.928h3.21v5.134c0 5.611-3.688 9.65-9.974 9.65-6.693 0-10.857-3.695-10.857-10.06M88.764 78.427V49.13c0-4.107-2.525-6.982-7.24-6.982-4.781 0-7.034 3.354-7.034 7.255v29.092c0 3.97 2.321 7.392 7.171 7.392 5.055 0 7.103-3.56 7.103-7.46m-17.962 0V49.745C70.802 42.765 75.444 39 81.73 39c6.009 0 10.654 3.217 10.654 9.993v29.091c0 7.392-4.577 11.088-10.927 11.088-6.42 0-10.655-3.627-10.655-10.745M98.822 89.859l4.23-7.602c2.527-4.693 3.853-8.6 3.853-12.504v-.706c-.084-2.326-.705-4.278-2.652-4.278-1.866 0-2.57 1.577-2.57 3.28v1.788h-2.985v-1.538c0-3.822 2.073-6.355 5.763-6.355 3.853 0 5.717 2.617 5.717 7.228 0 5.773-2.195 10.384-4.765 14.995l-2.695 4.902v.043h7.71v2.907H98.823v-2.16z"/>
        </g>
        <path stroke="#00D7FF" stroke-linecap="round" stroke-linejoin="round" stroke-width="3" d="M123.288 81.719c11.438 0 20.712-9.313 20.712-20.799 0-11.485-9.274-20.796-20.712-20.796-.512 0-1.01.038-1.513.076C118.67 18.6 100.169 2 77.8 2 58.733 2 42.475 14.06 36.168 30.995a26.41 26.41 0 0 0-7.702-1.145C13.848 29.85 2 41.748 2 56.425 2 71.105 13.848 83 28.466 83"/>
    </g>
</svg>
