<svg xmlns="http://www.w3.org/2000/svg" width="206" height="278" viewBox="0 0 206 278">
    <g fill="none" fill-rule="evenodd">
        <path d="M0 0h206v278H0z"/>
        <g stroke="#00D7FF" stroke-linecap="round" stroke-linejoin="round" stroke-width="3">
            <path d="M149.06 224.904h-9.383c-3.624 0-6.317-3.335-5.544-6.863l19.824-90.59c1.3-5.934 9.787-5.934 11.087 0l19.824 90.59c.77 3.528-1.923 6.863-5.544 6.863l-19.324.004V254M160 225v-35M171 199l-11 12M65 234v-20M34 212v-51M23 189l11 12M44 174l-10 9M6 254h193M20 264h79M61 274h79M50 212H34v41M24.054 212h-9.38c-3.622 0-6.314-3.339-5.541-6.87l19.817-90.676c1.297-5.939 9.781-5.939 11.08 0L56 187.528M57.927 233.733h-6.81c-2.627 0-4.58-2.413-4.021-4.966l14.382-65.548c.942-4.292 7.101-4.292 8.043 0l14.383 65.548c.56 2.553-1.394 4.966-4.022 4.966H65V254M103.927 237.011h-6.81c-2.627 0-4.58-2.424-4.02-4.984l14.382-65.794c.942-4.31 7.1-4.31 8.042 0l14.383 65.794c.56 2.56-1.394 4.984-4.022 4.984h-14.38V254"/>
        </g>
    </g>
</svg>
