<?xml version="1.0" encoding="utf-8"?>
<!-- Generator: Adobe Illustrator 22.1.0, SVG Export Plug-In . SVG Version: 6.00 Build 0)  -->
<svg version="1.1" xmlns="http://www.w3.org/2000/svg" xmlns:xlink="http://www.w3.org/1999/xlink" x="0px" y="0px"
	 viewBox="0 0 206 278" style="enable-background:new 0 0 206 278;" xml:space="preserve">
<style type="text/css">
	.st0{fill:none;}
	.st1{fill:#00D7FF;stroke:#00D7FF;stroke-width:3;stroke-linecap:round;stroke-linejoin:round;}
	.st2{fill:#00D7FF;}
</style>
<g id="Layer_1">
	<path class="st0" d="M0,0h206v278H0V0z"/>
	<path class="st1" d="M95.8,199.4c0.9,2.5-0.7,4.6-3.4,4.6H13.7c-2.7,0-4.3-2.1-3.4-4.6l4.7-13.8c0.9-2.5,3.8-4.6,6.6-4.6h63
		c2.7,0,5.7,2.1,6.6,4.6L95.8,199.4L95.8,199.4z M194.8,199.4c0.9,2.5-0.7,4.6-3.4,4.6h-78.7c-2.7,0-4.3-2.1-3.4-4.6l4.7-13.8
		c0.9-2.5,3.8-4.6,6.6-4.6h63c2.7,0,5.7,2.1,6.6,4.6L194.8,199.4L194.8,199.4z"/>
</g>
<g id="Layer_2">
	<g>
		<path class="st2" d="M101.9,247.9c-4.7,5.2-8.9,9.5-14.3,9.5c-7.1,0-12.9-5.8-12.9-12.9s5.8-12.9,12.9-12.9
			c5.7,0,9.8,4.6,15.5,10.9c0.3,0.4,1.7,1.8,2,2.2c5.2,5.8,9,9.9,13.4,9.9c2.6,0,5.1-1,7-2.8c2-1.9,3.1-4.5,3.1-7.3
			c0-4.8-3.8-10.1-10-10.1c-4.1,0-7.3,3.2-12.4,8.8l-1.9-2.1c4.9-5.4,8.9-9.6,14.3-9.6c7.1,0,12.8,5.8,12.8,12.9
			c0,3.6-1.4,6.9-3.9,9.3c-2.4,2.3-5.6,3.6-8.9,3.6c-5.7,0-9.8-4.6-15.5-10.9c-0.3-0.4-1.7-1.8-2-2.2c-5.2-5.8-8.9-9.9-13.4-9.9
			c-5.5,0-10,4.5-10,10.1s4.5,10.1,10,10.1c4.1,0,7.4-3.3,12.4-8.8L101.9,247.9z"/>
		<rect x="113.1" y="243.8" class="st2" width="10.7" height="1.3"/>
		<polygon class="st2" points="88.2,239.1 86.9,239.1 86.9,243.8 82.2,243.8 82.2,245.2 86.9,245.2 86.9,249.9 88.2,249.9 
			88.2,245.2 92.9,245.2 92.9,243.8 88.2,243.8 		"/>
	</g>
</g>
</svg>
