<svg xmlns="http://www.w3.org/2000/svg" width="206" height="278" viewBox="0 0 206 278">
    <defs>
        <linearGradient id="a" x1="50%" x2="50%" y1="0%" y2="97.624%">
            <stop offset="0%" stop-color="#0F6"/>
            <stop offset="100%" stop-color="#6FD9FF"/>
        </linearGradient>
    </defs>
    <g fill="none" fill-rule="evenodd">
        <path d="M0 278h206V0H0z"/>
        <path fill="url(#a)" d="M0 72.999C0 113.15 32.85 146 73.001 146 113.15 146 146 113.15 146 72.999 146 32.849 113.149 0 73.001 0 32.85 0 0 32.85 0 72.999M73.001 3.788h7.909c-5.93.987-11.863 2.965-15.82 4.943 5.935.99 6.92 3.957 4.944 8.898-.987 1.978 0 3.954 1.976 4.945 1.978.987 3.956.987 4.948-.991 1.976-2.963 5.93-3.954 8.897-4.941 3.957-.99 6.92-2.967 9.887-6.922 0-.989.987-.989 1.976-1.976 5.932 1.976 11.865 5.93 17.8 9.885-.992 0-.992.991-1.977.991-1.98 1.978-4.947 2.963-1.98 6.92.989 1.98 0 2.965-.99 3.956-1.977.987-2.964 0-3.953-.991-.99-.985-.99-2.966-3.955-2.966-.989 1.98-3.954 2.966-3.954 5.935 4.941 0 3.954 3.954 4.941 6.92-5.932.988-7.908 3.956-4.94 8.897.986 1.978-.992 2.97-1.981 3.956-3.955 5.935-7.909 9.89-7.909 16.809 0 6.921 4.944 13.843 12.854 12.854 8.898-.99 8.898-.99 11.867 6.921 0 .99.985 1.976.985 2.967.991 1.979 1.978 3.952.991 5.93-2.967 7.911.987 13.844 3.954 19.778.987 1.976 1.976 2.963 2.966 3.955C109.583 134.3 92.774 142.212 73 142.212c-6.921 0-14.83-.989-20.765-2.967-.986-1.978-.986-3.954 0-5.933 3.957-7.91 7.911-14.83 12.854-21.751 1.976-1.978 3.957-3.954 3.957-6.922 0-1.978.987-4.943 1.978-6.921 2.963-4.941 1.976-7.91-1.978-8.898-7.913-1.976-11.867-8.9-17.797-11.867-5.933-2.963-11.865-4.941-16.809-1.976-1.978.991-4.947 1.976-4.947-.987 0-3.958-4.941-6.924-3.955-10.876-.986 0-1.976 0-2.965.985-.987.991-1.978 1.978-3.956.991-1.976-1.976-.987-3.954-.987-5.932.987-1.976 1.978-2.967 3.956-3.956 3.952-.987 7.907-.987 9.885 3.956 2.97-8.898 8.9-13.843 14.832-17.8 0 0 7.91-6.921 8.898-6.921.99 0 1.978 1.978 3.956 2.97 1.976 0 2.967 0 2.967-1.979.987-4.945-1.978-10.875-5.932-11.867 0-.987.987-.987.987-.987 2.967-.991 6.921-2.967 5.932-5.932 0-3.954-3.954-5.935-7.91-5.935-1.976 0-3.952 0-5.93.992-3.955 1.976-8.9 3.954-14.83 3.954C45.316 7.744 59.157 3.788 73.001 3.788m42.515 44.494c2.965-.991 4.941-1.978 8.898-1.978 3.956 0 6.921 2.965 10.876 2.965-1.4 1.867-5.004 2.852-8.836 2.852-4.282 0-8.85-1.23-10.938-3.839M3.787 73c0-3.954 0-7.909.992-12.854.985 0 1.976.991 2.963.991 0 0 .991.987.991 1.978 0 2.963 2.966 4.942 4.944 4.942 7.91.989 10.876 7.912 17.795 9.888 1.978.987.991 2.966 0 4.942-5.933 7.912-.987 13.843 3.954 18.788 4.946 3.954 4.946 7.909 5.937 13.841 0 6.922.985 14.832 3.954 21.752-24.72-11.865-41.53-35.593-41.53-64.268" transform="translate(30 83)"/>
    </g>
</svg>
